<?xml version="1.0" encoding="UTF-8" standalone="no"?>
<!-- Created with Inkscape (http://www.inkscape.org/) -->

<svg
   xmlns:dc="http://purl.org/dc/elements/1.1/"
   xmlns:cc="http://creativecommons.org/ns#"
   xmlns:rdf="http://www.w3.org/1999/02/22-rdf-syntax-ns#"
   xmlns:svg="http://www.w3.org/2000/svg"
   xmlns="http://www.w3.org/2000/svg"
   xmlns:sodipodi="http://sodipodi.sourceforge.net/DTD/sodipodi-0.dtd"
   xmlns:inkscape="http://www.inkscape.org/namespaces/inkscape"
   width="400"
   height="400"
   id="svg2"
   version="1.1"
   inkscape:version="0.48.5 r10040"
   sodipodi:docname="skovin square red rgb.svg">
  <defs
     id="defs4">
    <clipPath
       id="clipPath3003">
      <path
         id="path3005"
         d="m 0,183.212 401.388,0 L 401.388,0 0,0 0,183.212 z"
         inkscape:connector-curvature="0" />
    </clipPath>
  </defs>
  <sodipodi:namedview
     id="base"
     pagecolor="#ffffff"
     bordercolor="#666666"
     borderopacity="1.0"
     inkscape:pageopacity="0.0"
     inkscape:pageshadow="2"
     inkscape:zoom="1.55875"
     inkscape:cx="364.64286"
     inkscape:cy="200.76698"
     inkscape:document-units="px"
     inkscape:current-layer="layer1"
     showgrid="false"
     units="px"
     inkscape:showpageshadow="false"
     inkscape:window-width="1374"
     inkscape:window-height="856"
     inkscape:window-x="66"
     inkscape:window-y="0"
     inkscape:window-maximized="1"
     fit-margin-top="0"
     fit-margin-left="0"
     fit-margin-right="0"
     fit-margin-bottom="0" />
  <metadata
     id="metadata7">
    <rdf:RDF>
      <cc:Work
         rdf:about="">
        <dc:format>image/svg+xml</dc:format>
        <dc:type
           rdf:resource="http://purl.org/dc/dcmitype/StillImage" />
        <dc:title></dc:title>
      </cc:Work>
    </rdf:RDF>
  </metadata>
  <g
     inkscape:label="Layer 1"
     inkscape:groupmode="layer"
     id="layer1"
     transform="translate(0,-652.3609)">
    <rect
       style="fill:#b83426;fill-opacity:1"
       id="rect2985"
       width="300"
       height="400"
       x="0"
       y="652.3609" />
    <g
       id="layer1-0"
       transform="matrix(0.4333671,0,0,0.4333671,37.98749,583.30464)">
      <g
         id="g2993"
         transform="matrix(1.25,0,0,-1.25,126.05987,647.26812)">
        <g
           id="g2995"
           transform="translate(207.501,46.0015)">
          <path
             style="fill:#ffffff;fill-opacity:1;fill-rule:nonzero;stroke:none"
             id="path2997"
             d="m 0,0 12.992,0 0,3.172 -9.571,0 0,14.598 L 0,17.77 0,0 z"
             inkscape:connector-curvature="0" />
        </g>
        <g
           id="g2999">
          <g
             id="g3001"
             clip-path="url(#clipPath3003)">
            <g
               id="g3007"
               transform="translate(184.6191,53.5376)">
              <path
                 style="fill:#ffffff;fill-opacity:1;fill-rule:nonzero;stroke:none"
                 id="path3009"
                 d="m 0,0 c 0,-4.895 1.595,-7.763 7.008,-7.763 4.931,0 6.804,2.868 6.804,7.763 l 0,10.233 -3.128,0 0,-10.507 c 0,-3.007 -1.559,-4.415 -3.733,-4.415 -2.162,0 -3.826,1.36 -3.826,4.415 l 0,10.507 L 0,10.233 0,0 z"
                 inkscape:connector-curvature="0" />
            </g>
            <g
               id="g3011"
               transform="translate(174.1104,62.1025)">
              <path
                 style="fill:#ffffff;fill-opacity:1;fill-rule:nonzero;stroke:none"
                 id="path3013"
                 d="m 0,0 c -1.495,1.219 -3.456,1.935 -5.516,1.935 -5.35,0 -8.676,-4.174 -8.676,-9.08 0,-4.967 2.778,-9.183 8.676,-9.183 2.738,0 5.668,1.266 7.293,3.555 l 0,5.729 -3.278,0 0,-4.745 c -1.067,-0.947 -2.666,-1.365 -4.044,-1.365 -2.978,0 -5.292,2.314 -5.292,6.009 0,4.144 2.7,5.782 5.292,5.782 2.188,0 3.389,-1.131 3.782,-1.548 L 0,0 z"
                 inkscape:connector-curvature="0" />
            </g>
            <g
               id="g3015"
               transform="translate(231.3545,46.0015)">
              <path
                 style="fill:#ffffff;fill-opacity:1;fill-rule:nonzero;stroke:none"
                 id="path3017"
                 d="m 0,0 -6.406,17.754 3.84,0 4.402,-13.351 4.538,13.351 3.742,0 L 3.547,0 0,0 z"
                 inkscape:connector-curvature="0" />
            </g>
            <path
               style="fill:#ffffff;fill-opacity:1;fill-rule:nonzero;stroke:none"
               id="path3019"
               d="m 276.975,137.213 9.329,0 0,-45.212 -9.329,0 0,45.212 z"
               inkscape:connector-curvature="0" />
            <g
               id="g3021"
               transform="translate(61.1841,91.2095)">
              <path
                 style="fill:#ffffff;fill-opacity:1;fill-rule:nonzero;stroke:none"
                 id="path3023"
                 d="m 0,0 c -7.537,0 -12.373,3.944 -14.653,6.406 l 4.176,6.815 C -8.19,10.266 -4.306,7.234 0.06,7.234 c 4.397,0 6.819,1.868 6.819,5.258 0,3.727 -0.933,4.972 -10.115,8.651 -6.902,2.776 -11.179,5.998 -11.179,13.478 0,7.168 6.007,12.175 14.606,12.175 5.169,0 9.744,-2.977 12.358,-5.815 L 8.576,34.517 c -0.888,1.073 -4.064,4.408 -9.247,4.408 -2.857,0 -5.75,-1.633 -5.75,-4.751 0,-3.615 3.4,-5.291 8.588,-7.432 C 10.771,23.19 14.542,20.775 14.542,12.557 14.542,3.29 6.709,0 0,0"
                 inkscape:connector-curvature="0" />
            </g>
            <g
               id="g3025"
               transform="translate(124.8687,92.0029)">
              <path
                 style="fill:#ffffff;fill-opacity:1;fill-rule:nonzero;stroke:none"
                 id="path3027"
                 d="m 0,0 -18.998,21.724 0,-21.724 -9.328,0 0,45.21 9.328,0 0,-20.674 18.596,20.674 10.789,0 L -9.601,23.591 11.074,0 0,0 z"
                 inkscape:connector-curvature="0" />
            </g>
            <g
               id="g3029"
               transform="translate(229.3081,92.0029)">
              <path
                 style="fill:#ffffff;fill-opacity:1;fill-rule:nonzero;stroke:none"
                 id="path3031"
                 d="m 0,0 -16.332,45.21 9.803,0 11.234,-34.071 11.578,34.071 9.549,0 L 9.118,0 0,0 z"
                 inkscape:connector-curvature="0" />
            </g>
            <g
               id="g3033"
               transform="translate(343.8491,92.0029)">
              <path
                 style="fill:#ffffff;fill-opacity:1;fill-rule:nonzero;stroke:none"
                 id="path3035"
                 d="m 0,0 -21.154,30.95 0,-30.948 -8.943,0 0,45.208 9.411,0 19.667,-29.247 0,29.247 8.943,0 L 7.924,0 0,0 z"
                 inkscape:connector-curvature="0" />
            </g>
            <g
               id="g3037"
               transform="translate(173.7368,99.499)">
              <path
                 style="fill:#ffffff;fill-opacity:1;fill-rule:nonzero;stroke:none"
                 id="path3039"
                 d="m 0,0 c -8.028,0 -14.537,6.763 -14.537,15.107 0,8.344 6.509,15.107 14.537,15.107 8.028,0 14.537,-6.763 14.537,-15.107 C 14.537,6.763 8.028,0 0,0 m 0,38.576 c -12.472,0 -22.583,-10.508 -22.583,-23.469 0,-12.961 10.111,-23.469 22.583,-23.469 12.473,0 22.583,10.508 22.583,23.469 0,12.961 -10.11,23.469 -22.583,23.469"
                 inkscape:connector-curvature="0" />
            </g>
          </g>
        </g>
      </g>
    </g>
    <rect
       style="fill:#b83426;fill-opacity:1"
       id="rect2985-1"
       width="107.05694"
       height="300"
       x="292.94305"
       y="652.3609" />
  </g>
</svg>
